<svg viewBox="0 0 16 16" fill="none" xmlns="http://www.w3.org/2000/svg">
  <path d="M14.7692 3.60025H9.48538L12.1277 1.02481C12.2432 0.912229 12.308 0.759535 12.308 0.60032C12.308 0.441105 12.2432 0.288412 12.1277 0.17583C12.0122 0.0632479 11.8556 0 11.6923 0C11.529 0 11.3724 0.0632479 11.2569 0.17583L8 3.35201L4.74308 0.17583C4.6859 0.120085 4.61802 0.0758655 4.54332 0.0456966C4.46862 0.0155277 4.38855 0 4.30769 0C4.22683 0 4.14677 0.0155277 4.07206 0.0456966C3.99736 0.0758655 3.92948 0.120085 3.87231 0.17583C3.75684 0.288412 3.69197 0.441105 3.69197 0.60032C3.69197 0.759535 3.75684 0.912229 3.87231 1.02481L6.51462 3.60025H1.23077C0.904349 3.60025 0.591298 3.72668 0.360484 3.95172C0.12967 4.17676 0 4.48197 0 4.80023V13.8C0 14.1183 0.12967 14.4235 0.360484 14.6485C0.591298 14.8736 0.904349 15 1.23077 15H14.7692C15.0957 15 15.4087 14.8736 15.6395 14.6485C15.8703 14.4235 16 14.1183 16 13.8V4.80023C16 4.48197 15.8703 4.17676 15.6395 3.95172C15.4087 3.72668 15.0957 3.60025 14.7692 3.60025ZM14.7692 13.8H1.23077V4.80023H14.7692V13.8Z" fill="currentColor"/>
</svg>
