<svg viewBox="0 0 16 16" fill="none" xmlns="http://www.w3.org/2000/svg">
  <path d="M13.7826 3.33074C12.3981 2.20026 10.2079 2.00863 10.1141 2.00174C9.96875 1.98933 9.83016 2.07205 9.77038 2.20853C9.76495 2.2168 9.71739 2.32847 9.6644 2.50218C10.5802 2.65935 11.7052 2.97505 12.7228 3.61612C12.8859 3.71814 12.9361 3.93596 12.8356 4.1014C12.769 4.21031 12.6563 4.26959 12.5394 4.26959C12.4769 4.26959 12.413 4.25167 12.356 4.21582C10.606 3.11429 8.4212 3.05915 8 3.05915C7.5788 3.05915 5.39266 3.11429 3.64402 4.21582C3.48098 4.31922 3.2663 4.26821 3.16576 4.10278C3.06386 3.93596 3.11413 3.71952 3.27717 3.61612C4.29484 2.97643 5.41984 2.65935 6.3356 2.50356C6.28261 2.32847 6.23505 2.21818 6.23098 2.20853C6.16984 2.07205 6.03261 1.98657 5.88587 2.00174C5.79212 2.00863 3.6019 2.20026 2.19837 3.34591C1.46603 4.03384 0 8.05395 0 11.5295C0 11.5915 0.0163043 11.6508 0.0461958 11.7046C1.05707 13.5078 3.81658 13.9793 4.44565 14C4.44837 14 4.45245 14 4.45652 14C4.56794 14 4.67255 13.9462 4.73777 13.8552L5.37364 12.9674C3.65761 12.518 2.78125 11.7542 2.73098 11.7087C2.58696 11.5805 2.57337 11.3572 2.70109 11.211C2.82745 11.0649 3.04755 11.0511 3.19158 11.1793C3.21196 11.1986 4.82609 12.5883 8 12.5883C11.1793 12.5883 12.7935 11.1931 12.8098 11.1793C12.9538 11.0525 13.1726 11.0649 13.3003 11.2124C13.4266 11.3585 13.413 11.5805 13.269 11.7087C13.2187 11.7542 12.3424 12.518 10.6264 12.9674L11.2622 13.8552C11.3274 13.9462 11.4321 14 11.5435 14C11.5476 14 11.5516 14 11.5543 14C12.1834 13.9793 14.9429 13.5078 15.9538 11.7046C15.9837 11.6508 16 11.5915 16 11.5295C16 8.05395 14.534 4.03384 13.7826 3.33074ZM5.73913 10.1178C5.06658 10.1178 4.52174 9.48635 4.52174 8.70604C4.52174 7.92573 5.06658 7.29432 5.73913 7.29432C6.41168 7.29432 6.95652 7.92573 6.95652 8.70604C6.95652 9.48635 6.41168 10.1178 5.73913 10.1178ZM10.2609 10.1178C9.58832 10.1178 9.04348 9.48635 9.04348 8.70604C9.04348 7.92573 9.58832 7.29432 10.2609 7.29432C10.9334 7.29432 11.4783 7.92573 11.4783 8.70604C11.4783 9.48635 10.9334 10.1178 10.2609 10.1178Z" fill="currentColor"/>
</svg>
