<svg viewBox="0 0 16 16" fill="none" xmlns="http://www.w3.org/2000/svg">
  <g clip-path="url(#clip0)">
    <path d="M11.5714 1C10.0964 1 8.80499 1.64765 7.99999 2.74239C7.19499 1.64765 5.90356 1 4.42856 1C3.25443 1.00135 2.12878 1.4782 1.29855 2.32593C0.468314 3.17365 0.00130813 4.32303 -1.52588e-05 5.5219C-1.52588e-05 10.6273 7.41356 14.7597 7.72927 14.9304C7.81248 14.9761 7.9055 15 7.99999 15C8.09447 15 8.18749 14.9761 8.2707 14.9304C8.58641 14.7597 16 10.6273 16 5.5219C15.9987 4.32303 15.5317 3.17365 14.7014 2.32593C13.8712 1.4782 12.7455 1.00135 11.5714 1ZM7.99999 13.7488C6.6957 12.9728 1.14284 9.43772 1.14284 5.5219C1.14398 4.63247 1.49051 3.77979 2.10646 3.15087C2.7224 2.52194 3.55748 2.1681 4.42856 2.16694C5.81784 2.16694 6.98427 2.92254 7.47141 4.13616C7.51447 4.24317 7.5877 4.3347 7.68182 4.39912C7.77593 4.46353 7.88668 4.49793 7.99999 4.49793C8.11329 4.49793 8.22404 4.46353 8.31815 4.39912C8.41227 4.3347 8.4855 4.24317 8.52856 4.13616C9.0157 2.92035 10.1821 2.16694 11.5714 2.16694C12.4425 2.1681 13.2776 2.52194 13.8935 3.15087C14.5095 3.77979 14.856 4.63247 14.8571 5.5219C14.8571 9.43188 9.30284 12.9721 7.99999 13.7488Z" fill="currentColor"/>
  </g>
  <defs>
    <clipPath id="clip0"><rect width="16" height="16" fill="white"/></clipPath>
  </defs>
</svg>
