<svg viewBox="0 0 16 16" fill="none" xmlns="http://www.w3.org/2000/svg">
  <path d="M6.28571 6.25C6.28571 6.09529 6.34592 5.94692 6.45308 5.83752C6.56025 5.72812 6.70559 5.66667 6.85714 5.66667H11.4286C11.5801 5.66667 11.7255 5.72812 11.8326 5.83752C11.9398 5.94692 12 6.09529 12 6.25C12 6.40471 11.9398 6.55308 11.8326 6.66248C11.7255 6.77187 11.5801 6.83333 11.4286 6.83333H6.85714C6.70559 6.83333 6.56025 6.77187 6.45308 6.66248C6.34592 6.55308 6.28571 6.40471 6.28571 6.25ZM6.85714 9.16667H11.4286C11.5801 9.16667 11.7255 9.10521 11.8326 8.99581C11.9398 8.88642 12 8.73804 12 8.58333C12 8.42862 11.9398 8.28025 11.8326 8.17085C11.7255 8.06146 11.5801 8 11.4286 8H6.85714C6.70559 8 6.56025 8.06146 6.45308 8.17085C6.34592 8.28025 6.28571 8.42862 6.28571 8.58333C6.28571 8.73804 6.34592 8.88642 6.45308 8.99581C6.56025 9.10521 6.70559 9.16667 6.85714 9.16667ZM16 12.6667C16 13.2855 15.7592 13.879 15.3305 14.3166C14.9019 14.7542 14.3205 15 13.7143 15H5.71429C5.10808 15 4.5267 14.7542 4.09804 14.3166C3.66939 13.879 3.42857 13.2855 3.42857 12.6667V3.33333C3.42857 3.02391 3.30816 2.72717 3.09384 2.50838C2.87951 2.28958 2.58882 2.16667 2.28571 2.16667C1.98261 2.16667 1.69192 2.28958 1.47759 2.50838C1.26326 2.72717 1.14286 3.02391 1.14286 3.33333C1.14286 3.75187 1.48786 4.03479 1.49143 4.03771C1.586 4.112 1.65542 4.21466 1.68993 4.33127C1.72445 4.44788 1.72234 4.5726 1.68389 4.68793C1.64545 4.80325 1.5726 4.9034 1.47557 4.97431C1.37854 5.04523 1.26219 5.08335 1.14286 5.08333C1.01929 5.08355 0.89907 5.0423 0.800714 4.96594C0.717857 4.90396 0 4.32573 0 3.33333C0 2.71449 0.240816 2.121 0.66947 1.68342C1.09812 1.24583 1.67951 1 2.28571 1H12C12.6062 1 13.1876 1.24583 13.6162 1.68342C14.0449 2.121 14.2857 2.71449 14.2857 3.33333V10.9167H14.8571C14.9808 10.9167 15.1011 10.9576 15.2 11.0333C15.2857 11.096 16 11.6743 16 12.6667ZM6.30429 11.3162C6.34333 11.1986 6.41784 11.0966 6.51715 11.0248C6.61646 10.953 6.73547 10.9152 6.85714 10.9167H13.1429V3.33333C13.1429 3.02391 13.0224 2.72717 12.8081 2.50838C12.5938 2.28958 12.3031 2.16667 12 2.16667H4.26357C4.46567 2.52083 4.57192 2.92346 4.57143 3.33333V12.6667C4.57143 12.9761 4.69184 13.2728 4.90616 13.4916C5.12049 13.7104 5.41118 13.8333 5.71429 13.8333C6.01739 13.8333 6.30808 13.7104 6.52241 13.4916C6.73674 13.2728 6.85714 12.9761 6.85714 12.6667C6.85714 12.2481 6.51214 11.9652 6.50857 11.9623C6.41119 11.8912 6.33877 11.79 6.30199 11.6737C6.26521 11.5574 6.26601 11.4321 6.30429 11.3162ZM14.8571 12.6667C14.85 12.4505 14.7683 12.2439 14.6264 12.0833H7.91214C7.96958 12.2722 7.99871 12.4689 7.99857 12.6667C7.99912 13.0764 7.89339 13.4789 7.69214 13.8333H13.7143C14.0174 13.8333 14.3081 13.7104 14.5224 13.4916C14.7367 13.2728 14.8571 12.9761 14.8571 12.6667Z" fill="currentColor"/>
</svg>
