<svg viewBox="0 0 16 16" fill="none" xmlns="http://www.w3.org/2000/svg">
  <g clip-path="url(#clip0)">
    <path d="M8.96277 3.75002V7.14611L11.8533 8.83907C11.9989 8.92444 12.1038 9.06277 12.1449 9.22365C12.186 9.38452 12.16 9.55474 12.0725 9.69688C11.9851 9.83902 11.8434 9.94143 11.6786 9.98157C11.5138 10.0217 11.3395 9.99631 11.1939 9.91095L7.99287 8.03595C7.89813 7.98038 7.81974 7.90182 7.76533 7.8079C7.71091 7.71398 7.68233 7.60791 7.68237 7.50001V3.75002C7.68237 3.58426 7.74982 3.42529 7.86988 3.30808C7.98994 3.19087 8.15278 3.12502 8.32257 3.12502C8.49236 3.12502 8.6552 3.19087 8.77526 3.30808C8.89532 3.42529 8.96277 3.58426 8.96277 3.75002ZM8.32257 2.31337e-05C7.31265 -0.00243276 6.31226 0.190674 5.37929 0.568168C4.44633 0.945663 3.59931 1.50005 2.88727 2.19924C2.30549 2.77424 1.78853 3.32736 1.28037 3.90627V2.50002C1.28037 2.33426 1.21292 2.17529 1.09286 2.05808C0.972798 1.94087 0.809961 1.87502 0.640169 1.87502C0.470378 1.87502 0.30754 1.94087 0.18748 2.05808C0.0674189 2.17529 -3.05176e-05 2.33426 -3.05176e-05 2.50002V5.62502C-3.05176e-05 5.79078 0.0674189 5.94975 0.18748 6.06696C0.30754 6.18417 0.470378 6.25001 0.640169 6.25001H3.84117C4.01096 6.25001 4.1738 6.18417 4.29386 6.06696C4.41392 5.94975 4.48137 5.79078 4.48137 5.62502C4.48137 5.45926 4.41392 5.30028 4.29386 5.18307C4.1738 5.06586 4.01096 5.00002 3.84117 5.00002H2.00059C2.57277 4.3422 3.14255 3.72267 3.79235 3.08049C4.68211 2.21186 5.81435 1.61847 7.04759 1.37446C8.28082 1.13045 9.56037 1.24664 10.7263 1.70853C11.8923 2.17041 12.893 2.95749 13.6034 3.97143C14.3138 4.98537 14.7024 6.1812 14.7206 7.4095C14.7388 8.63781 14.3858 9.84411 13.7057 10.8777C13.0257 11.9113 12.0487 12.7263 10.8969 13.2209C9.74513 13.7155 8.46956 13.8678 7.22961 13.6587C5.98966 13.4496 4.84032 12.8885 3.9252 12.0453C3.86403 11.9889 3.79208 11.9448 3.71346 11.9155C3.63483 11.8862 3.55107 11.8723 3.46695 11.8747C3.38283 11.877 3.3 11.8955 3.2232 11.929C3.14639 11.9626 3.07711 12.0106 3.01931 12.0703C2.96151 12.13 2.91633 12.2003 2.88633 12.277C2.85634 12.3538 2.84212 12.4356 2.8445 12.5177C2.84688 12.5998 2.8658 12.6807 2.90019 12.7556C2.93458 12.8306 2.98376 12.8983 3.04492 12.9547C3.95677 13.7947 5.06535 14.4042 6.27393 14.7298C7.48251 15.0554 8.75435 15.0872 9.97845 14.8226C11.2026 14.558 12.3417 14.0049 13.2965 13.2117C14.2513 12.4184 14.9928 11.4091 15.4561 10.2717C15.9194 9.1344 16.0906 7.90365 15.9547 6.68688C15.8188 5.47011 15.3799 4.30431 14.6763 3.29122C13.9727 2.27813 13.0258 1.44854 11.9183 0.874852C10.8108 0.301167 9.57632 0.000819795 8.32257 2.31337e-05Z" fill="currentColor"/>
  </g>
  <defs>
    <clipPath id="clip0"><rect width="16" height="16" fill="white"/></clipPath>
  </defs>
</svg>
