<svg viewBox="0 0 16 16" fill="none" xmlns="http://www.w3.org/2000/svg">
  <path d="M15.6336 6.77452L9.38359 0.374602C9.1492 0.13474 8.83138 0 8.5 0C8.16862 0 7.8508 0.13474 7.61641 0.374602L1.36641 6.77452C1.24978 6.89307 1.15732 7.03418 1.09442 7.18964C1.03151 7.34511 0.999423 7.51183 1.00001 7.68011V15.36C1.00001 15.5297 1.06586 15.6925 1.18307 15.8126C1.30028 15.9326 1.45925 16 1.62501 16H6.625C6.79076 16 6.94973 15.9326 7.06694 15.8126C7.18415 15.6925 7.25 15.5297 7.25 15.36V10.8801H9.75V15.36C9.75 15.5297 9.81585 15.6925 9.93306 15.8126C10.0503 15.9326 10.2092 16 10.375 16H15.375C15.5408 16 15.6997 15.9326 15.8169 15.8126C15.9341 15.6925 16 15.5297 16 15.36V7.68011C16.0006 7.51183 15.9685 7.34511 15.9056 7.18964C15.8427 7.03418 15.7502 6.89307 15.6336 6.77452ZM14.75 14.72H11V10.2401C11 10.0703 10.9341 9.90755 10.8169 9.78753C10.6997 9.66751 10.5408 9.60008 10.375 9.60008H6.625C6.45924 9.60008 6.30027 9.66751 6.18306 9.78753C6.06585 9.90755 6 10.0703 6 10.2401V14.72H2.25001V7.68011L8.5 1.28019L14.75 7.68011V14.72Z" fill="currentColor"/>
</svg>
