<svg viewBox="0 0 16 16" fill="none" xmlns="http://www.w3.org/2000/svg">
  <path d="M15.954 7.27725C15.9307 7.22294 15.366 5.93112 14.1107 4.63656C12.438 2.91162 10.3253 2 8 2C5.67466 2 3.562 2.91162 1.88933 4.63656C0.633994 5.93112 0.0666603 7.225 0.0459936 7.27725C0.0156691 7.34759 0 7.42371 0 7.50069C0 7.57766 0.0156691 7.65379 0.0459936 7.72412C0.069327 7.77844 0.633994 9.06956 1.88933 10.3641C3.562 12.0884 5.67466 13 8 13C10.3253 13 12.438 12.0884 14.1107 10.3641C15.366 9.06956 15.9307 7.77844 15.954 7.72412C15.9843 7.65379 16 7.57766 16 7.50069C16 7.42371 15.9843 7.34759 15.954 7.27725ZM8 11.9C5.948 11.9 4.15533 11.1307 2.67133 9.61406C2.06243 8.9896 1.54439 8.27753 1.13333 7.5C1.54428 6.7224 2.06233 6.01031 2.67133 5.38594C4.15533 3.86931 5.948 3.1 8 3.1C10.052 3.1 11.8447 3.86931 13.3287 5.38594C13.9388 6.01016 14.4579 6.72224 14.87 7.5C14.3893 8.42538 12.2953 11.9 8 11.9ZM8 4.2C7.3671 4.2 6.74841 4.39354 6.22217 4.75615C5.69594 5.11876 5.28578 5.63415 5.04358 6.23714C4.80138 6.84014 4.73801 7.50366 4.86148 8.1438C4.98496 8.78394 5.28973 9.37194 5.73726 9.83345C6.18478 10.295 6.75497 10.6093 7.37571 10.7366C7.99645 10.8639 8.63986 10.7986 9.22459 10.5488C9.80931 10.299 10.3091 9.87606 10.6607 9.33338C11.0123 8.7907 11.2 8.15268 11.2 7.5C11.1991 6.62506 10.8617 5.78623 10.2618 5.16755C9.66184 4.54888 8.84842 4.20091 8 4.2ZM8 9.7C7.57807 9.7 7.16561 9.57097 6.81478 9.32923C6.46396 9.08749 6.19052 8.7439 6.02906 8.3419C5.86759 7.93991 5.82534 7.49756 5.90766 7.0708C5.98997 6.64404 6.19315 6.25204 6.4915 5.94437C6.78986 5.63669 7.16998 5.42716 7.58381 5.34227C7.99763 5.25738 8.42658 5.30095 8.81639 5.46746C9.20621 5.63398 9.53939 5.91596 9.7738 6.27775C10.0082 6.63953 10.1333 7.06488 10.1333 7.5C10.1333 8.08348 9.90857 8.64305 9.50849 9.05563C9.10842 9.46821 8.5658 9.7 8 9.7Z" fill="currentColor"/>
</svg>
