<svg viewBox="0 0 16 16" fill="none" xmlns="http://www.w3.org/2000/svg">
  <path d="M15.5709 5.4884C15.41 5.30971 15.2121 5.16661 14.9905 5.06861C14.7688 4.97061 14.5284 4.91995 14.2852 4.92H10.2854V3.8C10.2854 3.05739 9.98435 2.3452 9.44855 1.8201C8.91275 1.295 8.18605 1 7.42831 1C7.32216 0.999926 7.21808 1.02883 7.12775 1.08348C7.03742 1.13813 6.96441 1.21636 6.9169 1.3094L4.21842 6.6H1.14282C0.839723 6.6 0.549043 6.718 0.334723 6.92804C0.120404 7.13808 0 7.42296 0 7.72V13.88C0 14.177 0.120404 14.4619 0.334723 14.672C0.549043 14.882 0.839723 15 1.14282 15H13.4281C13.8457 15.0001 14.2491 14.8509 14.5623 14.5802C14.8756 14.3095 15.0773 13.9361 15.1295 13.53L15.9866 6.81C16.017 6.57342 15.9956 6.3332 15.9239 6.10533C15.8523 5.87747 15.7319 5.66716 15.5709 5.4884ZM1.14282 7.72H3.99986V13.88H1.14282V7.72ZM14.8523 6.67L13.9952 13.39C13.9778 13.5254 13.9106 13.6498 13.8062 13.7401C13.7018 13.8303 13.5673 13.88 13.4281 13.88H5.14268V7.2923L7.76473 2.1522C8.15335 2.22843 8.50302 2.43427 8.75422 2.7347C9.00543 3.03513 9.14265 3.41158 9.14254 3.8V5.48C9.14254 5.62852 9.20274 5.77096 9.3099 5.87598C9.41706 5.981 9.5624 6.04 9.71395 6.04H14.2852C14.3663 6.03997 14.4465 6.05686 14.5204 6.08954C14.5943 6.12221 14.6603 6.16993 14.7139 6.22952C14.7675 6.28911 14.8076 6.35921 14.8315 6.43516C14.8554 6.5111 14.8625 6.59116 14.8523 6.67Z" fill="currentColor"/>
</svg>
