<svg viewBox="0 0 16 16" fill="none" xmlns="http://www.w3.org/2000/svg">
  <path d="M7.33309 7.29975C7.33309 7.4854 7.26286 7.66344 7.13784 7.79471C7.01282 7.92598 6.84325 7.99973 6.66645 7.99973H0.666645C0.48984 7.99973 0.320276 7.92598 0.195256 7.79471C0.0702357 7.66344 0 7.4854 0 7.29975C0 7.11411 0.0702357 6.93607 0.195256 6.8048C0.320276 6.67353 0.48984 6.59978 0.666645 6.59978H6.66645C6.84325 6.59978 7.01282 6.67353 7.13784 6.8048C7.26286 6.93607 7.33309 7.11411 7.33309 7.29975ZM0.666645 2.39995H11.9996C12.1764 2.39995 12.346 2.3262 12.471 2.19493C12.596 2.06366 12.6663 1.88562 12.6663 1.69997C12.6663 1.51433 12.596 1.33629 12.471 1.20502C12.346 1.07375 12.1764 1 11.9996 1H0.666645C0.48984 1 0.320276 1.07375 0.195256 1.20502C0.0702357 1.33629 0 1.51433 0 1.69997C0 1.88562 0.0702357 2.06366 0.195256 2.19493C0.320276 2.3262 0.48984 2.39995 0.666645 2.39995ZM5.33316 12.1996H0.666645C0.48984 12.1996 0.320276 12.2733 0.195256 12.4046C0.0702357 12.5358 0 12.7139 0 12.8995C0 13.0852 0.0702357 13.2632 0.195256 13.3945C0.320276 13.5258 0.48984 13.5995 0.666645 13.5995H5.33316C5.50996 13.5995 5.67953 13.5258 5.80455 13.3945C5.92957 13.2632 5.9998 13.0852 5.9998 12.8995C5.9998 12.7139 5.92957 12.5358 5.80455 12.4046C5.67953 12.2733 5.50996 12.1996 5.33316 12.1996ZM15.8045 10.3044C15.7426 10.2393 15.669 10.1877 15.5881 10.1524C15.5072 10.1172 15.4204 10.0991 15.3328 10.0991C15.2452 10.0991 15.1585 10.1172 15.0775 10.1524C14.9966 10.1877 14.9231 10.2393 14.8612 10.3044L12.6663 12.6099V5.89981C12.6663 5.71416 12.596 5.53612 12.471 5.40485C12.346 5.27358 12.1764 5.19984 11.9996 5.19984C11.8228 5.19984 11.6532 5.27358 11.5282 5.40485C11.4032 5.53612 11.333 5.71416 11.333 5.89981V12.6099L9.13803 10.3044C9.01294 10.173 8.84329 10.0993 8.66638 10.0993C8.48948 10.0993 8.31982 10.173 8.19473 10.3044C8.06964 10.4357 7.99937 10.6139 7.99937 10.7996C7.99937 10.9854 8.06964 11.1635 8.19473 11.2948L11.528 14.7947C11.5899 14.8598 11.6634 14.9114 11.7443 14.9466C11.8253 14.9819 11.912 15 11.9996 15C12.0872 15 12.174 14.9819 12.2549 14.9466C12.3358 14.9114 12.4093 14.8598 12.4713 14.7947L15.8045 11.2948C15.8665 11.2298 15.9156 11.1526 15.9492 11.0677C15.9827 10.9827 16 10.8916 16 10.7996C16 10.7076 15.9827 10.6165 15.9492 10.5316C15.9156 10.4466 15.8665 10.3694 15.8045 10.3044Z" fill="currentColor"/>
</svg>
