<svg viewBox="0 0 16 16" fill="none" xmlns="http://www.w3.org/2000/svg">
  <path d="M0 8.70025C0 8.5146 0.0702364 8.33656 0.195258 8.20529C0.320279 8.07402 0.489844 8.00028 0.666651 8.00028H6.66651C6.84332 8.00028 7.01288 8.07402 7.13791 8.20529C7.26293 8.33656 7.33316 8.5146 7.33316 8.70025C7.33316 8.88589 7.26293 9.06393 7.13791 9.1952C7.01288 9.32647 6.84332 9.40022 6.66651 9.40022H0.666651C0.489844 9.40022 0.320279 9.32647 0.195258 9.1952C0.0702364 9.06393 0 8.88589 0 8.70025ZM0.666651 3.80044H5.33321C5.51002 3.80044 5.67958 3.72669 5.8046 3.59542C5.92962 3.46415 5.99986 3.28611 5.99986 3.10047C5.99986 2.91482 5.92962 2.73678 5.8046 2.60551C5.67958 2.47424 5.51002 2.4005 5.33321 2.4005H0.666651C0.489844 2.4005 0.320279 2.47424 0.195258 2.60551C0.0702364 2.73678 0 2.91482 0 3.10047C0 3.28611 0.0702364 3.46415 0.195258 3.59542C0.320279 3.72669 0.489844 3.80044 0.666651 3.80044ZM11.9997 13.6001H0.666651C0.489844 13.6001 0.320279 13.6738 0.195258 13.8051C0.0702364 13.9363 0 14.1144 0 14.3C0 14.4857 0.0702364 14.6637 0.195258 14.795C0.320279 14.9263 0.489844 15 0.666651 15H11.9997C12.1765 15 12.3461 14.9263 12.4711 14.795C12.5961 14.6637 12.6664 14.4857 12.6664 14.3C12.6664 14.1144 12.5961 13.9363 12.4711 13.8051C12.3461 13.6738 12.1765 13.6001 11.9997 13.6001ZM15.8046 4.70515L12.4714 1.20529C12.4095 1.14021 12.3359 1.08858 12.255 1.05336C12.1741 1.01813 12.0873 1 11.9997 1C11.9121 1 11.8254 1.01813 11.7444 1.05336C11.6635 1.08858 11.59 1.14021 11.5281 1.20529L8.19481 4.70515C8.06972 4.8365 7.99944 5.01464 7.99944 5.20039C7.99944 5.38613 8.06972 5.56427 8.19481 5.69562C8.3199 5.82696 8.48956 5.90075 8.66647 5.90075C8.84337 5.90075 9.01303 5.82696 9.13812 5.69562L11.3331 3.39008V10.1002C11.3331 10.2858 11.4033 10.4639 11.5283 10.5951C11.6533 10.7264 11.8229 10.8002 11.9997 10.8002C12.1765 10.8002 12.3461 10.7264 12.4711 10.5951C12.5961 10.4639 12.6664 10.2858 12.6664 10.1002V3.39008L14.8613 5.69562C14.9233 5.76065 14.9968 5.81224 15.0777 5.84744C15.1586 5.88263 15.2454 5.90075 15.333 5.90075C15.4206 5.90075 15.5073 5.88263 15.5882 5.84744C15.6692 5.81224 15.7427 5.76065 15.8046 5.69562C15.8666 5.63058 15.9157 5.55337 15.9492 5.4684C15.9827 5.38343 16 5.29236 16 5.20039C16 5.10841 15.9827 5.01734 15.9492 4.93237C15.9157 4.8474 15.8666 4.77019 15.8046 4.70515Z" fill="currentColor"/>
</svg>
