<svg viewBox="0 0 16 16" fill="none" xmlns="http://www.w3.org/2000/svg">
  <g clip-path="url(#clip0)">
    <path d="M6.66645 15.3333C6.66645 15.5101 6.59621 15.6797 6.47119 15.8047C6.34617 15.9298 6.17661 16 5.9998 16H0.666645C0.48984 16 0.320276 15.9298 0.195256 15.8047C0.0702357 15.6797 0 15.5101 0 15.3333V0.666667C0 0.489856 0.0702357 0.320287 0.195256 0.195262C0.320276 0.070238 0.48984 0 0.666645 0H5.9998C6.17661 0 6.34617 0.070238 6.47119 0.195262C6.59621 0.320287 6.66645 0.489856 6.66645 0.666667C6.66645 0.843478 6.59621 1.01305 6.47119 1.13807C6.34617 1.2631 6.17661 1.33333 5.9998 1.33333H1.33329V14.6667H5.9998C6.17661 14.6667 6.34617 14.7369 6.47119 14.8619C6.59621 14.987 6.66645 15.1565 6.66645 15.3333ZM15.8045 7.52833L12.4713 4.195C12.3462 4.06991 12.1765 3.99963 11.9996 3.99963C11.8227 3.99963 11.653 4.06991 11.528 4.195C11.4029 4.32009 11.3326 4.48976 11.3326 4.66667C11.3326 4.84358 11.4029 5.01324 11.528 5.13833L13.7237 7.33333H5.9998C5.823 7.33333 5.65343 7.40357 5.52841 7.5286C5.40339 7.65362 5.33316 7.82319 5.33316 8C5.33316 8.17681 5.40339 8.34638 5.52841 8.47141C5.65343 8.59643 5.823 8.66667 5.9998 8.66667H13.7237L11.528 10.8617C11.4029 10.9868 11.3326 11.1564 11.3326 11.3333C11.3326 11.5102 11.4029 11.6799 11.528 11.805C11.653 11.9301 11.8227 12.0004 11.9996 12.0004C12.1765 12.0004 12.3462 11.9301 12.4713 11.805L15.8045 8.47167C15.8665 8.40975 15.9156 8.33623 15.9492 8.25529C15.9827 8.17436 16 8.08761 16 8C16 7.91239 15.9827 7.82564 15.9492 7.74471C15.9156 7.66377 15.8665 7.59025 15.8045 7.52833Z" fill="currentColor"/>
  </g>
  <defs>
    <clipPath id="clip0"><rect width="16" height="16" fill="white"/></clipPath>
  </defs>
</svg>
