<svg viewBox="0 0 16 16" fill="none" xmlns="http://www.w3.org/2000/svg">
  <path d="M7.3184 9.86636C8.00024 9.42057 8.51791 8.77111 8.79483 8.01404C9.07176 7.25696 9.09326 6.43246 8.85614 5.66246C8.61902 4.89246 8.13588 4.21784 7.47816 3.73836C6.82045 3.25888 6.02307 3 5.20395 3C4.38482 3 3.58745 3.25888 2.92973 3.73836C2.27201 4.21784 1.78887 4.89246 1.55175 5.66246C1.31463 6.43246 1.33613 7.25696 1.61306 8.01404C1.88999 8.77111 2.40765 9.42057 3.08949 9.86636C1.85611 10.3128 0.802767 11.1389 0.0866467 12.2215C0.0490099 12.2764 0.0228673 12.3381 0.00973857 12.4031C-0.00339018 12.468 -0.00324318 12.5349 0.010171 12.5998C0.0235852 12.6647 0.0499989 12.7263 0.087877 12.7811C0.125755 12.8358 0.174342 12.8827 0.230813 12.9189C0.287284 12.955 0.350513 12.9798 0.416825 12.9918C0.483137 13.0037 0.551208 13.0026 0.617083 12.9885C0.682958 12.9744 0.745322 12.9476 0.800549 12.9096C0.855777 12.8717 0.902767 12.8233 0.938788 12.7673C1.40072 12.0696 2.03281 11.4962 2.77766 11.0993C3.5225 10.7024 4.35651 10.4945 5.20395 10.4945C6.05138 10.4945 6.88539 10.7024 7.63024 11.0993C8.37509 11.4962 9.00718 12.0696 9.46911 12.7673C9.54372 12.8762 9.65899 12.9519 9.78998 12.978C9.92097 13.0042 10.0572 12.9786 10.1691 12.9069C10.2811 12.8352 10.3598 12.7231 10.3883 12.5948C10.4167 12.4665 10.3927 12.3324 10.3212 12.2215C9.60513 11.1389 8.55179 10.3128 7.3184 9.86636ZM2.40587 6.7487C2.40587 6.20521 2.56997 5.67393 2.87743 5.22203C3.18489 4.77014 3.62189 4.41793 4.13317 4.20994C4.64445 4.00196 5.20705 3.94754 5.74982 4.05357C6.2926 4.1596 6.79117 4.42132 7.18249 4.80562C7.5738 5.18993 7.84029 5.67956 7.94826 6.21261C8.05622 6.74566 8.00081 7.29817 7.78903 7.80029C7.57725 8.30241 7.21862 8.73158 6.75847 9.03353C6.29833 9.33548 5.75735 9.49664 5.20395 9.49664C4.46211 9.49581 3.7509 9.20603 3.22634 8.69088C2.70178 8.17572 2.40671 7.47725 2.40587 6.7487ZM15.7692 12.9128C15.6562 12.9852 15.5186 13.0105 15.3866 12.9832C15.2545 12.9559 15.139 12.8783 15.0653 12.7673C14.6039 12.0692 13.9719 11.4955 13.2269 11.0988C12.4819 10.702 11.6476 10.4948 10.8001 10.4959C10.6652 10.4959 10.5358 10.4433 10.4404 10.3496C10.345 10.2559 10.2914 10.1288 10.2914 9.99626C10.2914 9.86376 10.345 9.73667 10.4404 9.64298C10.5358 9.54928 10.6652 9.49664 10.8001 9.49664C11.2122 9.49626 11.619 9.4065 11.9917 9.23378C12.3643 9.06107 12.6935 8.80965 12.9558 8.4975C13.218 8.18535 13.4068 7.82017 13.5087 7.42805C13.6106 7.03594 13.623 6.62657 13.5451 6.22919C13.4672 5.83181 13.3009 5.45623 13.058 5.12929C12.8152 4.80236 12.5018 4.53213 12.1403 4.33791C11.7788 4.1437 11.3781 4.0303 10.9668 4.00581C10.5555 3.98132 10.1437 4.04635 9.761 4.19625C9.69859 4.22274 9.63141 4.23668 9.56342 4.23725C9.49544 4.23781 9.42803 4.22499 9.36518 4.19953C9.30232 4.17408 9.2453 4.13651 9.19749 4.08905C9.14967 4.04158 9.11202 3.98519 9.08677 3.9232C9.06152 3.8612 9.04918 3.79487 9.05048 3.72811C9.05177 3.66135 9.06668 3.59553 9.09432 3.53453C9.12196 3.47352 9.16177 3.41858 9.2114 3.37294C9.26102 3.32731 9.31946 3.2919 9.38326 3.26882C10.2592 2.92573 11.2335 2.91339 12.1182 3.23416C13.0029 3.55494 13.7353 4.1861 14.1741 5.0059C14.6129 5.8257 14.727 6.77604 14.4944 7.67358C14.2618 8.57113 13.699 9.35229 12.9146 9.86636C14.1479 10.3128 15.2013 11.1389 15.9174 12.2215C15.9911 12.3324 16.0169 12.4676 15.9891 12.5973C15.9613 12.7269 15.8822 12.8404 15.7692 12.9128Z" fill="currentColor"/>
</svg>
