<svg viewBox="0 0 16 16" fill="none" xmlns="http://www.w3.org/2000/svg">
  <path d="M12.6282 10.1733C12.475 11.0316 12.0632 11.8222 11.4484 12.4387C10.8335 13.0552 10.045 13.468 9.18915 13.6215C9.15666 13.6267 9.12381 13.6294 9.09091 13.6296C8.94268 13.6296 8.79989 13.5737 8.69084 13.473C8.58179 13.3723 8.51445 13.2342 8.50218 13.0861C8.48991 12.9379 8.5336 12.7906 8.62459 12.6732C8.71558 12.5559 8.84722 12.4771 8.99341 12.4526C10.2173 12.2459 11.2559 11.2044 11.4634 9.97477C11.4897 9.81976 11.5762 9.68156 11.7041 9.59057C11.8319 9.49958 11.9906 9.46326 12.1452 9.48958C12.2997 9.51591 12.4375 9.60273 12.5283 9.73095C12.619 9.85917 12.6552 10.0183 12.629 10.1733H12.6282ZM15 9.48143C15 11.2103 14.3152 12.8683 13.0962 14.0908C11.8772 15.3132 10.2239 16 8.5 16C6.77609 16 5.12279 15.3132 3.90381 14.0908C2.68482 12.8683 2 11.2103 2 9.48143C2 7.41327 2.8125 5.29844 4.41239 3.1962C4.46303 3.12963 4.52716 3.07459 4.60056 3.03468C4.67396 2.99478 4.75496 2.97093 4.83821 2.9647C4.92147 2.95847 5.0051 2.97001 5.08359 2.99855C5.16208 3.02708 5.23365 3.07198 5.29358 3.13027L7.07517 4.86436L8.70017 0.389513C8.73264 0.300263 8.78602 0.220149 8.85583 0.155925C8.92563 0.0917006 9.00981 0.0452488 9.10127 0.0204855C9.19273 -0.00427777 9.28878 -0.00662671 9.38133 0.0136368C9.47389 0.0339003 9.56022 0.0761823 9.63307 0.136918C11.2485 1.48137 15 5.0777 15 9.48143ZM13.8182 9.48143C13.8182 6.06733 11.1746 3.11694 9.51858 1.60508L7.87364 6.12881C7.83988 6.22173 7.78347 6.30469 7.70955 6.37014C7.63563 6.43559 7.54656 6.48145 7.45044 6.50355C7.35433 6.52564 7.25423 6.52325 7.15927 6.49662C7.0643 6.46998 6.9775 6.41993 6.90676 6.35104L4.95898 4.45621C3.77937 6.16363 3.18182 7.85179 3.18182 9.48143C3.18182 10.8959 3.74212 12.2525 4.73948 13.2527C5.73683 14.2529 7.08953 14.8148 8.5 14.8148C9.91047 14.8148 11.2632 14.2529 12.2605 13.2527C13.2579 12.2525 13.8182 10.8959 13.8182 9.48143Z" fill="currentColor"/>
</svg>
