<svg viewBox="0 0 23 16" fill="none" xmlns="http://www.w3.org/2000/svg">
  <path d="M7.53925 0.000167685L22.3529 0.168334C22.7115 0.172405 23 0.46639 23 0.827639V8.95957C23 9.33607 22.8508 9.69701 22.5856 9.96226L17.3691 15.1796C16.8436 15.7051 16.1333 16 15.3929 16H0.747967C0.334876 16 0 15.6626 0 15.2465V7.74369C0 7.08805 0.251334 6.45775 0.701546 5.98432L5.61939 0.812854C6.12026 0.286155 6.81528 -0.0080509 7.53925 0.000167685Z" fill="white"/>
  <path d="M1.68293 13.2425V9.33827C1.68293 9.27192 1.73619 9.21814 1.80189 9.21814H3.14018C3.20588 9.21814 3.25914 9.27192 3.25914 9.33827V11.7108C3.25914 11.7772 3.3124 11.831 3.3781 11.831H3.71544C3.74699 11.831 3.77725 11.8183 3.79956 11.7958L4.74103 10.845C4.76334 10.8225 4.77587 10.792 4.77587 10.7601V9.33827C4.77587 9.27192 4.82913 9.21814 4.89483 9.21814H6.17365C6.23935 9.21814 6.29261 9.27192 6.29261 9.33827V11.3913C6.29261 11.4229 6.28033 11.4531 6.25842 11.4756L4.45395 13.3267C4.43159 13.3497 4.40105 13.3626 4.36917 13.3626H1.80189C1.73619 13.3626 1.68293 13.3088 1.68293 13.2425Z" fill="#121212"/>
  <path fill-rule="evenodd" clip-rule="evenodd" d="M6.64948 13.3626C6.58379 13.3626 6.53053 13.3088 6.53053 13.2425V9.33827C6.53053 9.27192 6.58379 9.21814 6.64948 9.21814H11.0212C11.0869 9.21814 11.1402 9.27192 11.1402 9.33827V13.2425C11.1402 13.3088 11.0869 13.3626 11.0212 13.3626H6.64948ZM9.59373 12.1012C9.65943 12.1012 9.71269 12.0475 9.71269 11.9811V10.6597C9.71269 10.5933 9.65943 10.5396 9.59373 10.5396H8.10674C8.04104 10.5396 7.98778 10.5933 7.98778 10.6597V11.9811C7.98778 12.0475 8.04104 12.1012 8.10674 12.1012H9.59373Z" fill="#121212"/>
  <path fill-rule="evenodd" clip-rule="evenodd" d="M13.9647 9.21814C14.0604 9.21814 14.152 9.2569 14.219 9.32572L15.8853 11.035C15.951 11.1025 15.9878 11.1933 15.9878 11.2878V13.2425C15.9878 13.3088 15.9345 13.3626 15.8688 13.3626H11.4971C11.4314 13.3626 11.3781 13.3088 11.3781 13.2425V9.33827C11.3781 9.27192 11.4314 9.21814 11.4971 9.21814H13.9647ZM12.9246 10.4795C12.8589 10.4795 12.8056 10.5333 12.8056 10.5996V11.9211C12.8056 11.9874 12.8589 12.0412 12.9246 12.0412H14.4116C14.4773 12.0412 14.5306 11.9874 14.5306 11.9211V11.2527C14.5306 11.2213 14.5184 11.1912 14.4967 11.1687L13.8645 10.5156C13.8421 10.4925 13.8114 10.4795 13.7794 10.4795H12.9246Z" fill="#121212"/>
  <path d="M14.9599 13.6452H14.049C14.0354 13.6452 14.0244 13.6574 14.0244 13.6725V13.9988C14.0244 14.0139 14.0354 14.0261 14.049 14.0261H14.326C14.3396 14.0261 14.3506 14.0383 14.3506 14.0534V14.5598C14.3506 14.5749 14.3616 14.5871 14.3752 14.5871H14.6522C14.6658 14.5871 14.6768 14.5749 14.6768 14.5598V14.0534C14.6768 14.0383 14.6878 14.0261 14.7014 14.0261H14.9599C14.9735 14.0261 14.9846 14.0139 14.9846 13.9988V13.6725C14.9846 13.6574 14.9735 13.6452 14.9599 13.6452Z" fill="#121212"/>
  <path d="M15.0338 14.5598V13.6725C15.0338 13.6574 15.0448 13.6452 15.0584 13.6452H15.3354C15.349 13.6452 15.36 13.6574 15.36 13.6725V14.2117C15.36 14.2268 15.371 14.239 15.3846 14.239H15.4544C15.461 14.239 15.4672 14.2361 15.4718 14.231L15.6667 14.0149C15.6713 14.0098 15.6739 14.0029 15.6739 13.9956V13.6725C15.6739 13.6574 15.6849 13.6452 15.6985 13.6452H15.9632C15.9768 13.6452 15.9878 13.6574 15.9878 13.6725V14.1391C15.9878 14.1463 15.9853 14.1531 15.9807 14.1582L15.6073 14.579C15.6027 14.5842 15.5963 14.5871 15.5897 14.5871H15.0584C15.0448 14.5871 15.0338 14.5749 15.0338 14.5598Z" fill="#121212"/>
</svg>
