<svg width="246" height="170" viewBox="0 0 246 170" fill="none" xmlns="http://www.w3.org/2000/svg">
<path d="M80.6371 0.136764L239.079 1.92212C242.914 1.96533 246 5.08645 246 8.92168V95.2549C246 99.2521 244.405 103.084 241.568 105.9L185.773 161.29C180.154 166.869 172.556 170 164.637 170H8C3.58172 170 0 166.418 0 162V82.3464C0 75.3858 2.68818 68.6941 7.50349 63.6679L60.103 8.76471C65.4602 3.17297 72.8938 0.0495107 80.6371 0.136764Z" fill="#121212"/>
<path d="M18 140.725V99.2754C18 98.571 18.5696 98 19.2723 98H33.5863C34.289 98 34.8586 98.571 34.8586 99.2754V124.464C34.8586 125.168 35.4283 125.739 36.131 125.739H39.7391C40.0765 125.739 40.4002 125.605 40.6388 125.366L50.7084 115.272C50.947 115.033 51.0811 114.709 51.0811 114.37V99.2754C51.0811 98.571 51.6507 98 52.3534 98H66.0312C66.7339 98 67.3035 98.571 67.3035 99.2754V121.072C67.3035 121.407 67.1722 121.728 66.9379 121.966L47.6379 141.619C47.3987 141.863 47.072 142 46.7311 142H19.2723C18.5696 142 18 141.429 18 140.725Z" fill="white"/>
<path fill-rule="evenodd" clip-rule="evenodd" d="M71.1206 142C70.4179 142 69.8482 141.429 69.8482 140.725V99.2754C69.8482 98.571 70.4179 98 71.1206 98H117.879C118.582 98 119.152 98.571 119.152 99.2754V140.725C119.152 141.429 118.582 142 117.879 142H71.1206ZM102.611 128.609C103.314 128.609 103.884 128.038 103.884 127.333V113.304C103.884 112.6 103.314 112.029 102.611 112.029H86.7069C86.0042 112.029 85.4345 112.6 85.4345 113.304V127.333C85.4345 128.038 86.0042 128.609 86.7069 128.609H102.611Z" fill="white"/>
<path fill-rule="evenodd" clip-rule="evenodd" d="M149.362 98C150.385 98.0001 151.364 98.4116 152.082 99.1421L169.903 117.289C170.606 118.005 171 118.969 171 119.973V140.725C171 141.429 170.43 142 169.728 142H122.969C122.266 142 121.696 141.429 121.696 140.725V99.2754C121.696 98.571 122.266 98 122.969 98H149.362ZM138.237 111.391C137.534 111.391 136.965 111.962 136.965 112.667V126.696C136.965 127.4 137.534 127.971 138.237 127.971H154.141C154.844 127.971 155.414 127.4 155.414 126.696V119.6C155.414 119.267 155.284 118.947 155.052 118.708L148.29 111.775C148.05 111.529 147.722 111.391 147.38 111.391H138.237Z" fill="white"/>
<path d="M160.006 145H150.263C150.118 145 150 145.13 150 145.29V148.754C150 148.914 150.118 149.044 150.263 149.044H153.226C153.371 149.044 153.489 149.174 153.489 149.334V154.71C153.489 154.87 153.607 155 153.752 155H156.715C156.86 155 156.978 154.87 156.978 154.71V149.334C156.978 149.174 157.096 149.044 157.241 149.044H160.006C160.152 149.044 160.27 148.914 160.27 148.754V145.29C160.27 145.13 160.152 145 160.006 145Z" fill="white"/>
<path d="M160.796 154.71V145.29C160.796 145.13 160.914 145 161.06 145H164.022C164.167 145 164.285 145.13 164.285 145.29V151.014C164.285 151.175 164.403 151.304 164.549 151.304H165.295C165.365 151.304 165.432 151.274 165.482 151.219L167.566 148.925C167.615 148.871 167.643 148.797 167.643 148.721V145.29C167.643 145.13 167.761 145 167.906 145H170.737C170.882 145 171 145.13 171 145.29V150.244C171 150.32 170.973 150.393 170.924 150.447L166.93 154.913C166.881 154.969 166.813 155 166.742 155H161.06C160.914 155 160.796 154.87 160.796 154.71Z" fill="white"/>
</svg>
