<svg width="58" height="40" viewBox="0 0 58 40" fill="none" xmlns="http://www.w3.org/2000/svg">
<path d="M19.012 0.000419212L56.3682 0.420836C57.2724 0.431012 58 1.16598 58 2.0691V22.3989C58 23.3402 57.6239 24.2425 56.955 24.9057L43.8002 37.949C42.4753 39.2627 40.684 40 38.817 40H1.88618C0.844471 40 0 39.1566 0 38.1161V19.3592C0 17.7201 0.633798 16.1444 1.76912 14.9608L14.1706 2.03214C15.4337 0.715387 17.1864 -0.0201272 19.012 0.000419212Z" fill="#FDFF79"/>
<path d="M4.2439 33.1062V23.3457C4.2439 23.1798 4.37821 23.0453 4.54388 23.0453H7.91871C8.08439 23.0453 8.2187 23.1798 8.2187 23.3457V29.2771C8.2187 29.4429 8.35301 29.5774 8.51868 29.5774H9.36938C9.44894 29.5774 9.52524 29.5457 9.5815 29.4894L11.9556 27.1126C12.0119 27.0563 12.0435 26.9799 12.0435 26.9002V23.3457C12.0435 23.1798 12.1778 23.0453 12.3435 23.0453H15.5683C15.734 23.0453 15.8683 23.1798 15.8683 23.3457V28.4783C15.8683 28.5571 15.8374 28.6328 15.7821 28.689L11.2317 33.3169C11.1753 33.3742 11.0983 33.4065 11.0179 33.4065H4.54388C4.37821 33.4065 4.2439 33.272 4.2439 33.1062Z" fill="#121212"/>
<path fill-rule="evenodd" clip-rule="evenodd" d="M16.7683 33.4065C16.6026 33.4065 16.4683 33.272 16.4683 33.1062V23.3457C16.4683 23.1798 16.6026 23.0453 16.7683 23.0453H27.7927C27.9584 23.0453 28.0927 23.1798 28.0927 23.3457V33.1062C28.0927 33.272 27.9584 33.4065 27.7927 33.4065H16.7683ZM24.1929 30.2531C24.3586 30.2531 24.4929 30.1187 24.4929 29.9528V26.6492C24.4929 26.4834 24.3586 26.3489 24.1929 26.3489H20.4431C20.2774 26.3489 20.1431 26.4834 20.1431 26.6492V29.9528C20.1431 30.1187 20.2774 30.2531 20.4431 30.2531H24.1929Z" fill="#121212"/>
<path fill-rule="evenodd" clip-rule="evenodd" d="M35.2154 23.0453C35.4565 23.0454 35.6875 23.1423 35.8567 23.3143L40.0585 27.5876C40.2242 27.7561 40.3171 27.9832 40.3171 28.2196V33.1062C40.3171 33.272 40.1828 33.4065 40.0171 33.4065H28.9926C28.827 33.4065 28.6927 33.272 28.6927 33.1062V23.3457C28.6927 23.1798 28.827 23.0453 28.9926 23.0453H35.2154ZM32.5925 26.1987C32.4268 26.1987 32.2925 26.3332 32.2925 26.4991V29.8026C32.2925 29.9685 32.4268 30.1029 32.5925 30.1029H36.3423C36.5079 30.1029 36.6423 29.9685 36.6423 29.8026V28.1318C36.6423 28.0533 36.6117 27.9779 36.5569 27.9218L34.9626 26.2891C34.9062 26.2313 34.8288 26.1987 34.748 26.1987H32.5925Z" fill="#121212"/>
<path d="M37.7251 34.1129H35.4279C35.3937 34.1129 35.3659 34.1435 35.3659 34.1812V34.997C35.3659 35.0347 35.3937 35.0653 35.4279 35.0653H36.1264C36.1607 35.0653 36.1885 35.0958 36.1885 35.1335V36.3995C36.1885 36.4372 36.2163 36.4678 36.2506 36.4678H36.949C36.9833 36.4678 37.0111 36.4372 37.0111 36.3995V35.1335C37.0111 35.0958 37.0389 35.0653 37.0732 35.0653H37.7251C37.7593 35.0653 37.7871 35.0347 37.7871 34.997V34.1812C37.7871 34.1435 37.7593 34.1129 37.7251 34.1129Z" fill="#121212"/>
<path d="M37.9113 36.3995V34.1812C37.9113 34.1435 37.9391 34.1129 37.9734 34.1129H38.6718C38.7061 34.1129 38.7339 34.1435 38.7339 34.1812V35.5292C38.7339 35.5669 38.7617 35.5975 38.796 35.5975H38.9721C38.9885 35.5975 39.0043 35.5903 39.016 35.5775L39.5073 35.0373C39.519 35.0245 39.5255 35.0072 39.5255 34.9891V34.1812C39.5255 34.1435 39.5533 34.1129 39.5876 34.1129H40.255C40.2893 34.1129 40.3171 34.1435 40.3171 34.1812V35.3477C40.3171 35.3656 40.3107 35.3828 40.2992 35.3956L39.3575 36.4474C39.3458 36.4604 39.3299 36.4678 39.3132 36.4678H37.9734C37.9391 36.4678 37.9113 36.4372 37.9113 36.3995Z" fill="#121212"/>
</svg>
